<?xml version="1.0" encoding="UTF-8" standalone="no"?><!DOCTYPE svg PUBLIC "-//W3C//DTD SVG 1.1//EN" "http://www.w3.org/Graphics/SVG/1.1/DTD/svg11.dtd"><svg width="100%" height="100%" viewBox="0 0 609 150" version="1.1" xmlns="http://www.w3.org/2000/svg" xmlns:xlink="http://www.w3.org/1999/xlink" xml:space="preserve" xmlns:serif="http://www.serif.com/" style="fill-rule:evenodd;clip-rule:evenodd;stroke-linejoin:round;stroke-miterlimit:2;"><path d="M607.87,71.076c-0,-39.232 -31.804,-71.036 -71.036,-71.036c-116.956,-0 -348.714,-0 -465.537,-0c-18.786,-0 -36.803,7.463 -50.087,20.746c-13.284,13.284 -20.747,31.301 -20.747,50.087c0,2.762 0,5.532 0,8.294c0,39.098 31.696,70.793 70.794,70.793c116.878,0 348.879,0 465.782,0c18.786,0 36.802,-7.462 50.085,-20.746c13.283,-13.283 20.746,-31.299 20.746,-50.085c-0,-2.681 -0,-5.371 -0,-8.053Z" style="fill:#fff;"/><g><text x="167.268px" y="94.913px" style="font-family:'ArialRoundedMTBold', 'Arial Rounded MT Bold', sans-serif;font-size:50px;fill:#444b57;">Suppor<tspan x="346.028px 363.728px " y="94.913px 94.913px ">t </tspan>on K<tspan x="484.236px 514.436px 531.086px 548.347px " y="94.913px 94.913px 94.913px 94.913px ">o-fi</tspan></text><g><path d="M144.008,75c0,-27.788 -22.526,-50.314 -50.314,-50.314c-27.788,-0 -50.314,22.526 -50.314,50.314c-0,27.788 22.526,50.314 50.314,50.314c27.788,0 50.314,-22.526 50.314,-50.314Z" style="fill:#444b57;fill-rule:nonzero;"/><path d="M135.359,67.307c-1.06,-5.597 -4.073,-9.084 -7.161,-11.24c-3.194,-2.229 -7.019,-3.375 -10.914,-3.375l-55.276,-0c-1.923,-0 -2.66,1.877 -2.667,2.817c-0.001,0.123 0.004,0.614 0.004,0.614c-0,0 -0.091,24.455 0.081,37.517c0.521,7.711 8.247,7.708 8.247,7.708c0,0 25.225,-0.074 37.323,-0.149c0.567,-0.003 1.134,-0.065 1.684,-0.202c6.888,-1.723 7.6,-8.122 7.527,-11.689c13.845,0.769 23.613,-9 21.152,-22.001Zm-15.553,12.692c-2.952,0.369 -5.351,0.092 -5.351,0.092l-0,-18.079l3.633,0c2.401,0 4.717,1 6.284,2.82c1.103,1.281 1.985,3.083 1.985,5.574c0,6.088 -3.137,8.486 -6.551,9.593Z" style="fill:#fff;fill-rule:nonzero;"/><path d="M86.417,91.207c0.602,0.302 0.986,-0.074 0.986,-0.074c-0,0 8.798,-8.029 12.761,-12.654c3.525,-4.137 3.755,-11.108 -2.299,-13.713c-6.054,-2.605 -11.035,3.064 -11.035,3.064c-4.319,-4.751 -10.857,-4.51 -13.88,-1.295c-3.024,3.215 -1.968,8.733 0.288,11.804c2.117,2.883 11.424,11.179 12.835,12.582c-0,-0 0.103,0.107 0.344,0.286Z" style="fill:#444b57;fill-rule:nonzero;"/></g></g></svg>